# xmcd
#
# Track frame offsets: 
#        150
#        14239
#        28875
#        42838
#        57629
#        70321
#        84526
#        98709
#        107916
#        121791
#        135304
#        149090
#        163517
#        176796
#        190041
#        204845
#        217192
#        229247
#
# Disc length: 3217 seconds
#
# Revision: 1
# Processed by: cddbd v1.5.2PL0 Copyright (c) Steve Scherf et al.
# Submitted via: ExactAudioCopy v0.95b2
#
DISCID=0e0c8f12
DTITLE=Arthur Crudup - The Essential Arthur Crudup Disc 2
DYEAR=2001
DGENRE=Blues
TTITLE0=Dirt Road Blues
TTITLE1=Death Valley Blues
TTITLE2=If I Get Lucky
TTITLE3=Who's Been Foolin' You
TTITLE4=Standing At My Window
TTITLE5=Make A Little Love
TTITLE6=My Mama Don't Allow Me
TTITLE7=She's Got No Hair
TTITLE8=Baby I've Been Mistreated
TTITLE9=I'm Gonna Dig Myself A Hole
TTITLE10=Late In The Evening
TTITLE11=Chicago Blues
TTITLE12=Crudup's After Hours
TTITLE13=Hey Mama, Everything's All Right
TTITLE14=Just Like A Spider
TTITLE15=Gonna Find My Baby
TTITLE16=Behind Closed Doors
TTITLE17=Shout Sister Shout
EXTD=william hale
EXTT0=
EXTT1=
EXTT2=
EXTT3=
EXTT4=
EXTT5=
EXTT6=
EXTT7=
EXTT8=
EXTT9=
EXTT10=
EXTT11=
EXTT12=
EXTT13=
EXTT14=
EXTT15=
EXTT16=
EXTT17=
PLAYORDER=
